<?xml version="1.0" encoding="utf-8"?>
<!-- Generator: Adobe Illustrator 18.0.0, SVG Export Plug-In . SVG Version: 6.00 Build 0)  -->
<!DOCTYPE svg PUBLIC "-//W3C//DTD SVG 1.1//EN" "http://www.w3.org/Graphics/SVG/1.1/DTD/svg11.dtd">
<svg version="1.1" id="Layer_1" xmlns="http://www.w3.org/2000/svg" xmlns:xlink="http://www.w3.org/1999/xlink" x="0px" y="0px"
	 viewBox="0 0 612 792" style="enable-background:new 0 0 612 792;" xml:space="preserve">
<style type="text/css">
	.st0{fill:#FFFFFF;stroke:#FFFFFF;stroke-width:2;stroke-miterlimit:10;}
</style>
<g id="Layer_2">
</g>
<g>
	<path class="st0" d="M410.421,161.733c-43.585,0-81.721,19.976-108.961,50.849c-27.24-30.872-67.193-50.849-108.961-50.849
		c-83.537,0-148.914,70.825-148.914,156.178c0,23.608,3.632,45.401,10.896,67.193c0,0,5.448,19.976,10.896,29.056
		C128.938,550.362,301.46,637.531,301.46,637.531s174.338-87.169,236.083-223.371c0,0,7.264-18.16,10.896-29.056
		c7.264-21.792,10.896-43.585,10.896-67.193C559.335,232.558,493.958,161.733,410.421,161.733L410.421,161.733z"/>
</g>
</svg>
