<?xml version="1.0" encoding="utf-8"?>
<!-- Generator: Adobe Illustrator 18.0.0, SVG Export Plug-In . SVG Version: 6.00 Build 0)  -->
<!DOCTYPE svg PUBLIC "-//W3C//DTD SVG 1.1//EN" "http://www.w3.org/Graphics/SVG/1.1/DTD/svg11.dtd">
<svg version="1.1" id="Layer_1" xmlns="http://www.w3.org/2000/svg" xmlns:xlink="http://www.w3.org/1999/xlink" x="0px" y="0px"
	 viewBox="0 0 33.7 33.6" enable-background="new 0 0 33.7 33.6" xml:space="preserve">
<g id="Layer_2">
</g>
<g>
	<path fill="none" stroke="#FFFFFF" stroke-width="2" stroke-miterlimit="10" d="M22.6,3.9c-2.4,0-4.5,1.1-6,2.8
		c-1.5-1.7-3.7-2.8-6-2.8c-4.6,0-8.2,3.9-8.2,8.6c0,1.3,0.2,2.5,0.6,3.7c0,0,0.3,1.1,0.6,1.6c3.5,7.5,13,12.3,13,12.3
		s9.6-4.8,13-12.3c0,0,0.4-1,0.6-1.6c0.4-1.2,0.6-2.4,0.6-3.7C30.8,7.8,27.2,3.9,22.6,3.9L22.6,3.9z"/>
</g>
</svg>
