<?xml version="1.0" encoding="utf-8"?>
<!-- Generator: Adobe Illustrator 19.2.1, SVG Export Plug-In . SVG Version: 6.00 Build 0)  -->
<svg version="1.1" id="Layer_1" xmlns="http://www.w3.org/2000/svg" xmlns:xlink="http://www.w3.org/1999/xlink" x="0px" y="0px"
	 viewBox="0 0 47.8 46.8" style="enable-background:new 0 0 47.8 46.8;" xml:space="preserve">
<style type="text/css">
	.st0{stroke:#000000;stroke-width:2;stroke-miterlimit:10;}
</style>
<g id="Layer_2">
</g>
<g>
	<path class="st0" d="M33,4.3c-3.6,0-6.7,1.6-9,4.2c-2.2-2.5-5.5-4.2-9-4.2c-6.9,0-12.3,5.8-12.3,12.9c0,1.9,0.3,3.7,0.9,5.5
		c0,0,0.4,1.6,0.9,2.4C9.7,36.3,24,43.5,24,43.5s14.4-7.2,19.5-18.4c0,0,0.6-1.5,0.9-2.4c0.6-1.8,0.9-3.6,0.9-5.5
		C45.3,10.2,39.9,4.3,33,4.3L33,4.3z"/>
</g>
</svg>
